<svg id="visual" viewBox="0 0 900 600" width="900" height="600" 
xmlns="http://www.w3.org/2000/svg" xmlns:xlink="http://www.w3.org/1999/xlink" 
version="1.1"><rect x="0" y="0" width="900" height="600" fill="#f8fcf8"></rect>
<path d="M0 198L100 227L200 227L300 229L400 185L500 229L600 223L700 213L800 188L900 221L900 0L800 0L700 0L600 0L500 0L400 0L300 0L200 0L100 0L0 0Z" 
fill="#74a0d2"></path><path d="M0 166L100 160L200 188L300 175L400 157L500 177L600 197L700 170L800 176L900 172L900 0L800 0L700 0L600 0L500 0L400 0L300 0L200 0L100 0L0 0Z" 
fill="#75a8d5"></path><path d="M0 162L100 179L200 132L300 143L400 130L500 154L600 138L700 166L800 135L900 144L900 0L800 0L700 0L600 0L500 0L400 0L300 0L200 0L100 0L0 0Z" 
fill="#79b0d7"></path><path d="M0 136L100 108L200 117L300 115L400 145L500 117L600 139L700 118L800 150L900 131L900 0L800 0L700 0L600 0L500 0L400 0L300 0L200 0L100 0L0 0Z" 
fill="#7eb8d9"></path><path d="M0 95L100 88L200 84L300 100L400 109L500 112L600 80L700 104L800 115L900 114L900 0L800 0L700 0L600 0L500 0L400 0L300 0L200 0L100 0L0 0Z" 
fill="#85c0da"></path><path d="M0 60L100 56L200 83L300 51L400 73L500 75L600 84L700 82L800 79L900 55L900 0L800 0L700 0L600 0L500 0L400 0L300 0L200 0L100 0L0 0Z" 
fill="#8dc7dc"></path><path d="M0 38L100 41L200 39L300 46L400 30L500 29L600 44L700 42L800 31L900 48L900 0L800 0L700 0L600 0L500 0L400 0L300 0L200 0L100 0L0 0Z" 
fill="#97cedd"></path></svg>