<svg id="visual" viewBox="0 0 900 600" width="900" height="600" 
xmlns="http://www.w3.org/2000/svg" xmlns:xlink="http://www.w3.org/1999/xlink" 
version="1.1"><rect x="0" y="0" width="900" height="600" fill="#f8fcf8"></rect>
<path d="M0 227L100 202L200 212L300 246L400 192L500 196L600 239L700 227L800 247L900 204L900 0L800 0L700 0L600 0L500 0L400 0L300 0L200 0L100 0L0 0Z" 
fill="#74a0d2"></path><path d="M0 208L100 216L200 161L300 163L400 204L500 179L600 178L700 170L800 173L900 193L900 0L800 0L700 0L600 0L500 0L400 0L300 0L200 0L100 0L0 0Z" 
fill="#75a8d5"></path><path d="M0 131L100 133L200 136L300 137L400 182L500 183L600 176L700 133L800 143L900 142L900 0L800 0L700 0L600 0L500 0L400 0L300 0L200 0L100 0L0 0Z" 
fill="#79b0d7"></path><path d="M0 117L100 149L200 110L300 113L400 111L500 111L600 107L700 126L800 112L900 148L900 0L800 0L700 0L600 0L500 0L400 0L300 0L200 0L100 0L0 0Z" 
fill="#7eb8d9"></path><path d="M0 100L100 116L200 85L300 94L400 107L500 95L600 96L700 94L800 102L900 87L900 0L800 0L700 0L600 0L500 0L400 0L300 0L200 0L100 0L0 0Z" 
fill="#85c0da"></path><path d="M0 62L100 69L200 69L300 70L400 84L500 60L600 63L700 56L800 61L900 68L900 0L800 0L700 0L600 0L500 0L400 0L300 0L200 0L100 0L0 0Z" 
fill="#8dc7dc"></path><path d="M0 37L100 25L200 42L300 29L400 51L500 35L600 32L700 41L800 41L900 30L900 0L800 0L700 0L600 0L500 0L400 0L300 0L200 0L100 0L0 0Z" 
fill="#97cedd"></path></svg>