<svg id="visual" viewBox="0 0 900 600" width="900" height="600" 
xmlns="http://www.w3.org/2000/svg" xmlns:xlink="http://www.w3.org/1999/xlink" 
version="1.1"><rect x="0" y="0" width="900" height="600" fill="#f8fcf8"></rect>
<path d="M0 194L100 212L200 226L300 246L400 208L500 206L600 223L700 240L800 234L900 236L900 0L800 0L700 0L600 0L500 0L400 0L300 0L200 0L100 0L0 0Z" 
fill="#74a0d2"></path><path d="M0 196L100 178L200 171L300 163L400 190L500 159L600 199L700 204L800 207L900 162L900 0L800 0L700 0L600 0L500 0L400 0L300 0L200 0L100 0L0 0Z" 
fill="#75a8d5"></path><path d="M0 170L100 136L200 151L300 174L400 162L500 157L600 140L700 175L800 154L900 162L900 0L800 0L700 0L600 0L500 0L400 0L300 0L200 0L100 0L0 0Z" 
fill="#79b0d7"></path><path d="M0 108L100 141L200 137L300 143L400 117L500 106L600 130L700 129L800 117L900 105L900 0L800 0L700 0L600 0L500 0L400 0L300 0L200 0L100 0L0 0Z" 
fill="#7eb8d9"></path><path d="M0 107L100 78L200 94L300 92L400 113L500 111L600 110L700 97L800 103L900 105L900 0L800 0L700 0L600 0L500 0L400 0L300 0L200 0L100 0L0 0Z" 
fill="#85c0da"></path><path d="M0 57L100 78L200 50L300 69L400 77L500 80L600 53L700 82L800 70L900 60L900 0L800 0L700 0L600 0L500 0L400 0L300 0L200 0L100 0L0 0Z" 
fill="#8dc7dc"></path><path d="M0 45L100 28L200 34L300 43L400 50L500 34L600 33L700 29L800 26L900 22L900 0L800 0L700 0L600 0L500 0L400 0L300 0L200 0L100 0L0 0Z" 
fill="#97cedd"></path></svg>