<svg width="278" height="278" viewBox="0 0 278 278" fill="none" xmlns="http://www.w3.org/2000/svg">
<rect width="278" height="278" fill="#F5F5F5"/>
<g id="Frame 1" clip-path="url(#clip0_0_1)" filter="url(#filter0_d_0_1)">
<rect width="270" height="270" transform="translate(4)" fill="white"/>
<g id="page" filter="url(#filter1_d_0_1)">
<rect x="7" width="263" height="266" rx="11" fill="white"/>
</g>
<g id="boxes">
<g id="Group 2">
<rect id="box" x="74" y="108" width="50" height="50" fill="#D9D9D9"/>
<path id="Vector 2" d="M78.484 118.594C79.124 119.051 79.4496 117.502 79.9344 117.883C80.6308 118.43 80.4256 118.952 81.6503 118.727C82.3829 118.592 82.1832 118.836 82.8495 118.973C83.4915 119.106 83.9919 118.154 84.2146 118.637C84.597 119.465 85.7923 117.83 86.1438 118.357C86.64 119.102 87.2457 118.806 88.0303 118.556C88.5339 118.396 89.1916 118.847 89.9737 118.594C91.8464 117.99 90.7247 118.684 92.0119 118.936C93.2351 119.174 94.8783 118.453 95.6806 117.694C95.9466 117.442 95.897 118.14 95.965 118.291C96.2546 118.935 97.4933 118.49 97.9132 118.291C98.6481 117.942 99.5029 118.253 100.373 118.253C103.583 118.253 105.192 117.826 107.919 117.826" stroke="black" stroke-opacity="0.2" stroke-linecap="round"/>
<path id="Vector 3" d="M78.8253 128.235C80.1549 126.06 80.3506 128.141 81.3185 128.15C82.7206 128.163 84.4513 128.619 85.7646 128.368C87.6171 128.014 90.1954 128.539 91.8887 127.837C92.8952 127.42 92.4227 127.368 93.4197 127.453C94.8086 127.572 96.2824 126.831 97.406 126.87C98.0015 126.891 97.8712 127.868 99.0034 127.619C99.7311 127.459 101.036 126.602 101.094 127.553C101.094 127.556 105.297 127.604 105.834 127.449C107.059 127.093 106.897 128.635 107.905 127.875C109.586 126.608 109.053 127.979 110.507 127.856C111.965 127.733 113.083 126.998 114.574 126.785" stroke="black" stroke-opacity="0.2" stroke-linecap="round"/>
<path id="Vector 4" d="M79.7638 138.388C80.8884 138.388 81.5643 138.31 82.7974 138.303C83.987 138.296 85.8758 137.649 86.8595 138.042C88.0641 138.524 89.8063 138.031 91.0923 138.151C91.8824 138.225 92.7305 138.682 93.8415 138.502C94.8549 138.338 96.9573 137.889 97.7662 138.294C98.8069 138.814 101.602 138.342 102.402 138.417C104.167 138.582 106.113 138.085 107.986 138.578C108.82 138.797 109.158 139.034 109.948 138.313C110.387 137.911 110.948 138.349 111.763 138.213C112.996 138.007 114.48 137.62 115.683 137.62" stroke="black" stroke-opacity="0.2" stroke-linecap="round"/>
<path id="Vector 5" d="M78.5693 150.674C80.4733 150.674 79.4864 149.17 80.6597 150.395C81.6689 151.448 87.3481 150.595 88.7935 150.409C90.7296 150.159 91.6472 149.821 93.7941 149.821C94.4037 149.821 98.2371 149.426 98.4488 149.527C99.168 149.873 103.268 148.482 103.393 149.475C103.495 150.298 106.83 149.139 107.587 149.139C108.944 149.139 109.769 149.95 110.943 149.764C111.947 149.606 112.834 149.736 113.977 149.736" stroke="black" stroke-opacity="0.2" stroke-linecap="round"/>
</g>
<g id="Group 4">
<rect id="box_2" x="74" y="173" width="50" height="50" fill="#D9D9D9"/>
<path id="Vector 2_2" d="M78.484 183.594C79.124 184.051 79.4496 182.502 79.9344 182.883C80.6308 183.43 80.4256 183.952 81.6503 183.727C82.3829 183.592 82.1832 183.836 82.8495 183.973C83.4915 184.106 83.9919 183.154 84.2146 183.637C84.597 184.465 85.7923 182.83 86.1438 183.357C86.64 184.102 87.2457 183.806 88.0303 183.556C88.5339 183.396 89.1916 183.847 89.9737 183.594C91.8464 182.99 90.7247 183.684 92.0119 183.936C93.2351 184.174 94.8783 183.453 95.6806 182.694C95.9466 182.442 95.897 183.14 95.965 183.291C96.2546 183.935 97.4933 183.49 97.9132 183.291C98.6481 182.942 99.5029 183.253 100.373 183.253C103.583 183.253 105.192 182.826 107.919 182.826" stroke="black" stroke-opacity="0.2" stroke-linecap="round"/>
<path id="Vector 3_2" d="M78.8253 193.235C80.1549 191.06 80.3506 193.141 81.3185 193.15C82.7206 193.163 84.4513 193.619 85.7646 193.368C87.6171 193.014 90.1954 193.539 91.8887 192.837C92.8952 192.42 92.4227 192.368 93.4197 192.453C94.8086 192.572 96.2824 191.831 97.406 191.87C98.0015 191.891 97.8712 192.868 99.0034 192.619C99.7311 192.459 101.036 191.602 101.094 192.553C101.094 192.556 105.297 192.604 105.834 192.449C107.059 192.093 106.897 193.635 107.905 192.875C109.586 191.608 109.053 192.979 110.507 192.856C111.965 192.733 113.083 191.998 114.574 191.785" stroke="black" stroke-opacity="0.2" stroke-linecap="round"/>
<path id="Vector 4_2" d="M79.7638 203.388C80.8884 203.388 81.5643 203.31 82.7974 203.303C83.987 203.296 85.8758 202.649 86.8595 203.042C88.0641 203.524 89.8063 203.031 91.0923 203.151C91.8824 203.225 92.7305 203.682 93.8415 203.502C94.8549 203.338 96.9573 202.889 97.7662 203.294C98.8069 203.814 101.602 203.342 102.402 203.417C104.167 203.582 106.113 203.085 107.986 203.578C108.82 203.797 109.158 204.034 109.948 203.313C110.387 202.911 110.948 203.349 111.763 203.213C112.996 203.007 114.48 202.62 115.683 202.62" stroke="black" stroke-opacity="0.2" stroke-linecap="round"/>
<path id="Vector 5_2" d="M78.5693 215.674C80.4733 215.674 79.4864 214.17 80.6597 215.395C81.6689 216.448 87.3481 215.595 88.7935 215.409C90.7296 215.159 91.6472 214.821 93.7941 214.821C94.4037 214.821 98.2371 214.426 98.4488 214.527C99.168 214.873 103.268 213.482 103.393 214.475C103.495 215.298 106.83 214.139 107.587 214.139C108.944 214.139 109.769 214.95 110.943 214.764C111.947 214.606 112.834 214.736 113.977 214.736" stroke="black" stroke-opacity="0.2" stroke-linecap="round"/>
</g>
<g id="Group 5">
<rect id="box_3" x="154" y="173" width="50" height="50" fill="#D9D9D9"/>
<path id="Vector 2_3" d="M158.484 183.594C159.124 184.051 159.45 182.502 159.934 182.883C160.631 183.43 160.426 183.952 161.65 183.727C162.383 183.592 162.183 183.836 162.85 183.973C163.492 184.106 163.992 183.154 164.215 183.637C164.597 184.465 165.792 182.83 166.144 183.357C166.64 184.102 167.246 183.806 168.03 183.556C168.534 183.396 169.192 183.847 169.974 183.594C171.846 182.99 170.725 183.684 172.012 183.936C173.235 184.174 174.878 183.453 175.681 182.694C175.947 182.442 175.897 183.14 175.965 183.291C176.255 183.935 177.493 183.49 177.913 183.291C178.648 182.942 179.503 183.253 180.373 183.253C183.583 183.253 185.192 182.826 187.919 182.826" stroke="black" stroke-opacity="0.2" stroke-linecap="round"/>
<path id="Vector 3_3" d="M158.825 193.235C160.155 191.06 160.351 193.141 161.319 193.15C162.721 193.163 164.451 193.619 165.765 193.368C167.617 193.014 170.195 193.539 171.889 192.837C172.895 192.42 172.423 192.368 173.42 192.453C174.809 192.572 176.282 191.831 177.406 191.87C178.001 191.891 177.871 192.868 179.003 192.619C179.731 192.459 181.036 191.602 181.094 192.553C181.094 192.556 185.297 192.604 185.834 192.449C187.059 192.093 186.897 193.635 187.905 192.875C189.586 191.608 189.053 192.979 190.507 192.856C191.965 192.733 193.083 191.998 194.574 191.785" stroke="black" stroke-opacity="0.2" stroke-linecap="round"/>
<path id="Vector 4_3" d="M159.764 203.388C160.888 203.388 161.564 203.31 162.797 203.303C163.987 203.296 165.876 202.649 166.86 203.042C168.064 203.524 169.806 203.031 171.092 203.151C171.882 203.225 172.731 203.682 173.842 203.502C174.855 203.338 176.957 202.889 177.766 203.294C178.807 203.814 181.602 203.342 182.402 203.417C184.167 203.582 186.113 203.085 187.986 203.578C188.82 203.797 189.158 204.034 189.948 203.313C190.387 202.911 190.948 203.349 191.763 203.213C192.996 203.007 194.48 202.62 195.683 202.62" stroke="black" stroke-opacity="0.2" stroke-linecap="round"/>
<path id="Vector 5_3" d="M158.569 215.674C160.473 215.674 159.486 214.17 160.66 215.395C161.669 216.448 167.348 215.595 168.793 215.409C170.73 215.159 171.647 214.821 173.794 214.821C174.404 214.821 178.237 214.426 178.449 214.527C179.168 214.873 183.268 213.482 183.393 214.475C183.495 215.298 186.83 214.139 187.587 214.139C188.944 214.139 189.769 214.95 190.943 214.764C191.947 214.606 192.834 214.736 193.977 214.736" stroke="black" stroke-opacity="0.2" stroke-linecap="round"/>
</g>
<g id="Group 3">
<rect id="box_4" x="154" y="108" width="50" height="50" fill="#D9D9D9"/>
<path id="Vector 2_4" d="M158.484 118.594C159.124 119.051 159.45 117.502 159.934 117.883C160.631 118.43 160.426 118.952 161.65 118.727C162.383 118.592 162.183 118.836 162.85 118.973C163.492 119.106 163.992 118.154 164.215 118.637C164.597 119.465 165.792 117.83 166.144 118.357C166.64 119.102 167.246 118.806 168.03 118.556C168.534 118.396 169.192 118.847 169.974 118.594C171.846 117.99 170.725 118.684 172.012 118.936C173.235 119.174 174.878 118.453 175.681 117.694C175.947 117.442 175.897 118.14 175.965 118.291C176.255 118.935 177.493 118.49 177.913 118.291C178.648 117.942 179.503 118.253 180.373 118.253C183.583 118.253 185.192 117.826 187.919 117.826" stroke="black" stroke-opacity="0.2" stroke-linecap="round"/>
<path id="Vector 3_4" d="M158.825 128.235C160.155 126.06 160.351 128.141 161.319 128.15C162.721 128.163 164.451 128.619 165.765 128.368C167.617 128.014 170.195 128.539 171.889 127.837C172.895 127.42 172.423 127.368 173.42 127.453C174.809 127.572 176.282 126.831 177.406 126.87C178.001 126.891 177.871 127.868 179.003 127.619C179.731 127.459 181.036 126.602 181.094 127.553C181.094 127.556 185.297 127.604 185.834 127.449C187.059 127.093 186.897 128.635 187.905 127.875C189.586 126.608 189.053 127.979 190.507 127.856C191.965 127.733 193.083 126.998 194.574 126.785" stroke="black" stroke-opacity="0.2" stroke-linecap="round"/>
<path id="Vector 4_4" d="M159.764 138.388C160.888 138.388 161.564 138.31 162.797 138.303C163.987 138.296 165.876 137.649 166.86 138.042C168.064 138.524 169.806 138.031 171.092 138.151C171.882 138.225 172.731 138.682 173.842 138.502C174.855 138.338 176.957 137.889 177.766 138.294C178.807 138.814 181.602 138.342 182.402 138.417C184.167 138.582 186.113 138.085 187.986 138.578C188.82 138.797 189.158 139.034 189.948 138.313C190.387 137.911 190.948 138.349 191.763 138.213C192.996 138.007 194.48 137.62 195.683 137.62" stroke="black" stroke-opacity="0.2" stroke-linecap="round"/>
<path id="Vector 5_4" d="M158.569 150.674C160.473 150.674 159.486 149.17 160.66 150.395C161.669 151.448 167.348 150.595 168.793 150.409C170.73 150.159 171.647 149.821 173.794 149.821C174.404 149.821 178.237 149.426 178.449 149.527C179.168 149.873 183.268 148.482 183.393 149.475C183.495 150.298 186.83 149.139 187.587 149.139C188.944 149.139 189.769 149.95 190.943 149.764C191.947 149.606 192.834 149.736 193.977 149.736" stroke="black" stroke-opacity="0.2" stroke-linecap="round"/>
</g>
</g>
<rect id="navigator" x="7" width="263" height="20" rx="10" fill="#97CEDD"/>
<g id="approves">
<g id="approve">
<circle id="Ellipse 1" cx="121" cy="113" r="10" fill="#4AC452"/>
<path id="Star 1" d="M121 107L122.347 111.146H126.706L123.18 113.708L124.527 117.854L121 115.292L117.473 117.854L118.82 113.708L115.294 111.146H119.653L121 107Z" fill="white"/>
</g>
<g id="approve_2">
<circle id="Ellipse 1_2" cx="201" cy="113" r="10" fill="#4AC452"/>
<path id="Star 1_2" d="M201 107L202.347 111.146H206.706L203.18 113.708L204.527 117.854L201 115.292L197.473 117.854L198.82 113.708L195.294 111.146H199.653L201 107Z" fill="white"/>
</g>
<g id="approve_3">
<circle id="Ellipse 1_3" cx="121" cy="175" r="10" fill="#4AC452"/>
<path id="Star 1_3" d="M121 169L122.347 173.146H126.706L123.18 175.708L124.527 179.854L121 177.292L117.473 179.854L118.82 175.708L115.294 173.146H119.653L121 169Z" fill="white"/>
</g>
<g id="approve_4">
<circle id="Ellipse 1_4" cx="201" cy="175" r="10" fill="#4AC452"/>
<path id="Star 1_4" d="M201 169L202.347 173.146H206.706L203.18 175.708L204.527 179.854L201 177.292L197.473 179.854L198.82 175.708L195.294 173.146H199.653L201 169Z" fill="white"/>
</g>
</g>
<g id="note">
<rect id="elipse" x="74" y="31" width="130" height="60" rx="30" fill="#4AC452"/>
<path id="Vector 1" opacity="0.8" d="M87.4642 59.1837C88.5634 62.2613 90.8114 65.023 92.2697 67.9396C93.8308 71.0619 95.6698 63.8986 96.4369 62.3031C98.061 58.925 100.025 55.4539 102.543 52.6559C105.108 49.8064 104.374 56.7946 104.374 58.1961C104.374 60.7273 104.435 65.147 107.288 60.9903C108.628 59.0387 112.412 51.0964 113.383 56.233C114.703 63.2253 115.574 63.0455 121.621 58.2684C126.071 54.7529 125.33 55.0073 128.052 59.545C130.219 63.1563 137.549 56.2069 138.807 58.2202C140.978 61.6933 141.129 64.4464 146.142 61.0385C146.886 60.5327 151.039 56.26 151.959 57.7505C152.821 59.1459 153.859 61.0071 155.801 60.918C159.598 60.7439 161.808 54.6495 166.075 55.7873C169.049 56.5804 169.742 60.3272 173.807 57.8468C178.379 55.057 174.285 58.469 177.818 59.1355C179.327 59.4204 180.756 57.6459 182.406 58.1961C183.949 58.7103 184.077 60.0698 185.935 60.0509C186.966 60.0404 189.292 58.8093 189.837 59.9786C190.927 62.3144 191.809 62.4356 194.125 62.4356" stroke="white" stroke-width="3" stroke-linecap="round"/>
</g>
</g>
<defs>
<filter id="filter0_d_0_1" x="0" y="0" width="278" height="278" filterUnits="userSpaceOnUse" color-interpolation-filters="sRGB">
<feFlood flood-opacity="0" result="BackgroundImageFix"/>
<feColorMatrix in="SourceAlpha" type="matrix" values="0 0 0 0 0 0 0 0 0 0 0 0 0 0 0 0 0 0 127 0" result="hardAlpha"/>
<feOffset dy="4"/>
<feGaussianBlur stdDeviation="2"/>
<feComposite in2="hardAlpha" operator="out"/>
<feColorMatrix type="matrix" values="0 0 0 0 0 0 0 0 0 0 0 0 0 0 0 0 0 0 0.25 0"/>
<feBlend mode="normal" in2="BackgroundImageFix" result="effect1_dropShadow_0_1"/>
<feBlend mode="normal" in="SourceGraphic" in2="effect1_dropShadow_0_1" result="shape"/>
</filter>
<filter id="filter1_d_0_1" x="-4.1" y="-7.1" width="285.2" height="288.2" filterUnits="userSpaceOnUse" color-interpolation-filters="sRGB">
<feFlood flood-opacity="0" result="BackgroundImageFix"/>
<feColorMatrix in="SourceAlpha" type="matrix" values="0 0 0 0 0 0 0 0 0 0 0 0 0 0 0 0 0 0 127 0" result="hardAlpha"/>
<feMorphology radius="1" operator="dilate" in="SourceAlpha" result="effect1_dropShadow_0_1"/>
<feOffset dy="4"/>
<feGaussianBlur stdDeviation="5.05"/>
<feComposite in2="hardAlpha" operator="out"/>
<feColorMatrix type="matrix" values="0 0 0 0 0 0 0 0 0 0 0 0 0 0 0 0 0 0 0.25 0"/>
<feBlend mode="normal" in2="BackgroundImageFix" result="effect1_dropShadow_0_1"/>
<feBlend mode="normal" in="SourceGraphic" in2="effect1_dropShadow_0_1" result="shape"/>
</filter>
<clipPath id="clip0_0_1">
<rect width="270" height="270" fill="white" transform="translate(4)"/>
</clipPath>
</defs>
</svg>
